HIERARCHY
ROOT reference
{
  OFFSET 0 0 0
  CHANNELS 6 Xposition Yposition Zposition Zrotation Xrotation Yrotation
  JOINT Hips
  {
    OFFSET 30.4358 98.8683 17.5863
    CHANNELS 3 Zrotation Xrotation Yrotation
    JOINT ToSpine
    {
      OFFSET -0.0105055 1.38907 -7.13956
      CHANNELS 3 Zrotation Xrotation Yrotation
      JOINT Spine
      {
        OFFSET 0.0105055 10 1
        CHANNELS 3 Zrotation Xrotation Yrotation
        JOINT Spine1
        {
          OFFSET 0 12 1.60637
          CHANNELS 3 Zrotation Xrotation Yrotation
          JOINT Neck
          {
            OFFSET 0 27 2.26658
            CHANNELS 3 Zrotation Xrotation Yrotation
            JOINT Head
            {
              OFFSET 0 9 2.12705
              CHANNELS 3 Zrotation Xrotation Yrotation
              End Site
              {
                OFFSET 0 11 2
              }
            }
          }
          JOINT LeftShoulder
          {
            OFFSET 8 19.6109 2.86452
            CHANNELS 3 Zrotation Xrotation Yrotation
            JOINT LeftArm
            {
              OFFSET 12 1 0.681055
              CHANNELS 3 Zrotation Xrotation Yrotation
              JOINT LeftForeArm
              {
                OFFSET 19 0 -1.52608
                CHANNELS 3 Zrotation Xrotation Yrotation
                JOINT LeftHand
                {
                  OFFSET 23 0 0
                  CHANNELS 3 Zrotation Xrotation Yrotation
                  End Site
                  {
                    OFFSET 10 0 0
                  }
                }
              }
            }
          }
          JOINT RightShoulder
          {
            OFFSET -8 19.6109 2.86452
            CHANNELS 3 Zrotation Xrotation Yrotation
            JOINT RightArm
            {
              OFFSET -12 1 0.681055
              CHANNELS 3 Zrotation Xrotation Yrotation
              JOINT RightForeArm
              {
                OFFSET -19 0 -1.52608
                CHANNELS 3 Zrotation Xrotation Yrotation
                JOINT RightHand
                {
                  OFFSET -23 0 0
                  CHANNELS 3 Zrotation Xrotation Yrotation
                  End Site
                  {
                    OFFSET -10 0 0
                  }
                }
              }
            }
          }
        }
      }
    }
    JOINT LeftUpLeg
    {
      OFFSET 9 -7.17245 0
      CHANNELS 3 Zrotation Xrotation Yrotation
      JOINT LeftLeg
      {
        OFFSET 0 -44.1113 0
        CHANNELS 3 Zrotation Xrotation Yrotation
        JOINT LeftFoot
        {
          OFFSET 0 -36.1829 0
          CHANNELS 3 Zrotation Xrotation Yrotation
          JOINT LeftToeBase
          {
            OFFSET 0 -4.84184 13
            CHANNELS 3 Zrotation Xrotation Yrotation
            End Site
            {
              OFFSET 0 1 6
            }
          }
        }
      }
    }
    JOINT RightUpLeg
    {
      OFFSET -9 -7.17245 0
      CHANNELS 3 Zrotation Xrotation Yrotation
      JOINT RightLeg
      {
        OFFSET 0 -44.0551 0
        CHANNELS 3 Zrotation Xrotation Yrotation
        JOINT RightFoot
        {
          OFFSET 0 -36.1469 0
          CHANNELS 3 Zrotation Xrotation Yrotation
          JOINT RightToeBase
          {
            OFFSET 0 -4.92256 13
            CHANNELS 3 Zrotation Xrotation Yrotation
            End Site
            {
              OFFSET 0 1 6
            }
          }
        }
      }
    }
  }
}
MOTION
Frames:	12
Frame Time:	0.0416667
0 0 0 -0 0 0 10.4658 -6.67006 8.92115 -0 0 0 7.0152 -20.8039 4.51011 -23.092 27.8609 11.2693 6.65285 19.8255 -18.1544 0.510926 -0.615659 -15.7846 -38.956 7.80383 -13.6715 -30.6158 16.0459 13.304 -13.4918 -22.7838 -16.7178 6.06586 0.0575658 1.07704 26.5853 7.51901 19.2028 50.9414 -16.9081 8.94609 51.6225 24.2255 108.002 -2.82612 -0.355712 14.3422 -10.5579 8.70882 8.72027 -6.51636 14.8307 -7.02967 11.171 -10.6478 1.0443 -1.72789 -1.10511 3.69757 -24.3641 0.412983 -23.0061 -5.17933e-005 35.0756 16.7523 3.0647 -22.8751 0.620555 -0.0364446 -1.08755 -0.168207 
0 0 0 -0 0 0 10.428 -6.8384 9.14441 -0 0 0 7.02971 -20.6786 4.47611 -22.8552 27.8089 11.1158 6.24159 20.3596 -17.9272 0.833569 -0.818562 -15.8078 -39.2111 7.7946 -13.551 -31.2326 16.9747 13.6725 -13.4816 -23.3335 -17.6744 5.687 0.0470369 0.944651 26.596 7.67007 19.6409 50.6117 -17.4206 8.35223 51.8731 24.5084 108.034 -2.88888 -0.348325 13.76 -10.5468 8.97826 8.64457 -6.30434 14.8222 -7.35357 11.3262 -10.7438 1.06842 -1.85973 -0.956078 4.03569 -24.2172 0.741486 -22.9305 0.000446402 34.9928 16.48 2.55589 -22.6617 0.512321 0.0304024 -2.34762 -0.709201 
0 0 0 -0 0 0 10.4598 -6.86539 9.60851 -0 0 0 7.04064 -20.7495 4.35474 -23.1463 27.8738 11.1092 6.71722 20.4431 -18.1371 0.654067 -0.69924 -15.7618 -38.5728 7.60765 -13.3924 -31.887 16.9976 13.2033 -13.3224 -23.0746 -17.7858 5.42638 0.0595457 1.25112 27.0549 7.79859 19.7127 50.1025 -17.7793 8.13853 52.0363 24.634 108.016 -3.27123 -0.362641 12.6541 -10.4484 9.04036 8.69397 -6.33733 14.9571 -7.77793 11.5672 -10.4505 1.06123 -1.89481 -1.47324 4.00504 -24.066 1.0799 -22.6807 -0.000235557 34.8092 15.8883 3.11371 -22.9029 0.630931 0.10115 -1.63566 -0.714004 
0 0 0 -0 0 0 10.5744 -6.96268 10.2225 -0 0 0 6.63 -20.6094 4.19253 -22.7909 28.0057 10.8964 6.96779 20.5705 -18.2954 0.57476 -0.761878 -15.7915 -38.8128 7.65006 -13.3922 -31.588 17.4403 12.615 -13.1149 -22.7109 -18.0212 5.61204 0.0462369 0.947518 26.8133 7.57267 19.2078 50.5175 -17.2571 8.51008 52.1354 24.4621 107.846 -3.15782 -0.340349 12.2931 -10.4248 9.19449 8.62356 -6.18194 15.0992 -8.44093 11.2527 -10.5805 1.04501 -1.89703 -1.26119 4.05735 -24.0696 1.53395 -22.7601 4.04613e-005 34.727 15.4433 3.7599 -23.228 0.773458 -0.0959615 -0.679142 0.108008 
0 0 0 -0 0 0 10.6119 -6.86949 10.6785 -0 0 0 6.2911 -20.7498 4.25535 -22.4056 28.1757 10.8865 7.52244 20.8238 -18.6773 0.373195 -1.09856 -15.8888 -38.7844 7.73386 -13.5861 -31.4724 18.2418 12.2134 -12.9122 -22.5589 -18.5206 5.93932 0.0165969 0.317265 26.2763 7.1894 18.4239 51.3022 -16.6107 9.19173 52.1086 24.3842 107.812 -3.42254 -0.365768 12.2046 -10.3207 9.10999 8.63165 -6.20457 15.1254 -8.741 11.6069 -10.1135 1.03079 -1.87809 -1.93762 3.86689 -23.905 1.70427 -22.9238 -0.000210437 34.5176 14.945 3.13066 -22.9072 0.63428 -0.0695991 -1.22569 -0.108822 
0 0 0 -0 0 0 10.5795 -6.85822 10.9734 -0 0 0 6.28636 -20.601 4.18411 -22.2774 28.2647 10.7895 6.94987 20.0753 -18.5444 0.571165 -0.479577 -16.058 -38.5346 7.58024 -13.3475 -31.5248 18.6682 11.5534 -12.5516 -22.4964 -19.3876 5.8777 0.0241678 0.472219 26.5516 7.37419 18.7966 50.8274 -17.1809 9.09611 51.6567 24.6805 108.277 -3.83736 -0.394682 11.732 -9.98382 9.20445 8.88546 -6.46556 15.0506 -9.32311 11.6538 -10.362 1.06007 -1.87413 -1.23211 4.0074 -23.6817 1.72866 -22.7401 3.7259e-005 34.5931 14.3882 3.09028 -22.8877 0.625665 -0.0827526 -1.69608 -0.18849 
0 0 0 -0 0 0 10.7329 -6.99613 11.1993 -0 0 0 6.55143 -20.4583 4.18931 -22.8105 28.313 10.9905 6.9898 20.0325 -18.5529 0.501726 -0.59518 -16.0364 -38.2042 7.53805 -13.3836 -31.5057 18.8866 11.2801 -12.3303 -22.8074 -20.2505 5.61234 0.0277081 0.566012 26.3727 7.26454 18.5866 51.2759 -16.865 9.54111 51.3257 24.4965 108.36 -3.52676 -0.374775 12.1452 -10.0407 9.55167 8.96026 -6.51444 14.745 -9.28045 11.4069 -10.5442 1.05619 -1.51294 -0.597598 3.31147 -23.7436 2.02901 -22.5901 0.000191962 34.5218 14.2935 3.5729 -23.0456 0.729019 -0.0655206 -1.44772 -0.171864 
0 0 0 -0 0 0 10.6969 -6.90631 11.456 -0 0 0 6.85118 -20.3973 4.19958 -23.4084 27.9554 11.1684 8.13152 20.4626 -18.9279 -0.204808 -1.12701 -15.7487 -37.4145 7.49483 -13.6002 -31.835 18.9118 11.1956 -12.08 -22.7664 -20.7726 5.92942 0.010586 0.208422 26.9621 7.3407 18.4381 50.9873 -16.77 9.36084 51.177 24.3871 108.379 -3.46809 -0.397272 13.0629 -9.92777 9.52788 8.87973 -6.44717 14.5789 -9.64441 11.59 -10.3082 1.049 -1.62104 -0.66571 3.5455 -23.5318 2.11325 -22.3259 0.000135523 34.2772 13.7748 4.85124 -23.4792 1.00876 -0.159464 -0.276709 0.38721 
0 0 0 -0 0 0 10.6419 -6.86413 11.7675 -0 0 0 7.04703 -20.4644 4.17601 -23.7035 27.9634 11.1969 8.0622 20.563 -18.7134 -0.00783037 -1.32175 -15.603 -36.9478 7.40515 -13.5847 -31.8705 19.0051 10.7673 -11.9788 -22.7436 -20.9742 5.72699 0.00189754 0.0344036 27.1181 7.40951 18.5406 50.8738 -16.886 9.29017 51.0573 24.2853 108.385 -2.95558 -0.351867 13.5573 -9.69049 9.31814 8.90912 -6.3835 14.9389 -10.2522 11.4422 -10.0723 1.01145 -1.85514 -1.25863 3.95853 -23.3531 2.2494 -22.454 -6.64752e-005 34.1731 13.5525 5.48825 -23.9965 1.16726 -0.184155 0.931663 0.736775 
0 0 0 -0 0 0 10.7263 -6.73172 11.8104 -0 0 0 6.78551 -20.8265 4.15151 -23.3198 28.2435 11.0634 7.05758 20.3994 -18.0937 0.703321 -1.18324 -15.579 -37.1868 7.33301 -13.3255 -31.6448 19.4261 10.3701 -12.0423 -22.9324 -21.1401 5.57046 -0.0119078 -0.246079 26.8064 7.38302 18.6613 51.2215 -17.0505 9.48743 51.4196 24.413 108.248 -2.40603 -0.283662 13.4395 -9.55851 9.04356 9.05927 -6.63917 15.3242 -10.5467 11.6612 -10.1048 1.0341 -1.94791 -1.4514 4.13125 -23.4385 2.12892 -22.4941 0.000439781 34.2685 13.6729 5.99021 -24.1331 1.28155 -0.284391 0.509594 0.925882 
0 0 0 -0 0 0 10.7814 -6.63201 11.5634 -0 0 0 6.85033 -20.9274 4.24334 -23.3253 28.1153 11.1474 6.66744 20.1939 -17.7143 0.952979 -1.04985 -15.4209 -37.1859 7.31558 -13.2862 -31.9101 19.6841 10.4486 -12.0718 -23.1174 -21.3337 6.00384 0.00682407 0.130186 26.7585 7.43722 18.85 51.3234 -16.9974 9.40223 51.0301 24.3236 108.427 -2.42407 -0.289078 13.5933 -9.46141 9.00719 9.22972 -6.96076 15.2331 -10.2602 11.5459 -10.5738 1.07206 -1.64595 -0.633926 3.61127 -23.5153 1.7654 -22.233 -0.000328745 34.6125 13.6324 6.15616 -24.4609 1.33638 -0.225998 1.32816 0.948056 
0 0 0 -0 0 0 10.9249 -6.4942 11.3351 -0 0 0 6.79743 -20.8742 4.35694 -23.4307 27.7942 11.2855 7.14809 20.1068 -18.1034 0.683406 -0.911447 -15.542 -37.1934 7.33904 -13.3359 -31.964 19.2153 10.5115 -11.853 -22.3909 -20.9273 6.08331 -0.000380045 -0.00468023 27.1887 7.55392 18.9156 50.6221 -16.9743 9.05452 50.9307 24.1841 108.395 -2.26062 -0.273458 13.794 -9.49818 8.8163 9.27559 -7.17912 15.3582 -10.2755 11.734 -10.2313 1.05373 -1.89708 -1.38874 4.02709 -23.686 1.45349 -22.1322 0.000225275 34.8515 13.7992 6.2247 -24.6275 1.36 -0.21831 1.22396 0.898394 
